<?xml version="1.0" encoding="UTF-8" standalone="no"?>
<!-- Created with Inkscape (http://www.inkscape.org/) -->

<svg
   viewBox="0 0 512 512"
   version="1.1"
   id="svg5"
   xml:space="preserve"
   inkscape:export-filename="confy-logo.svg"
   inkscape:export-xdpi="96"
   inkscape:export-ydpi="96"
   xmlns:inkscape="http://www.inkscape.org/namespaces/inkscape"
   xmlns:sodipodi="http://sodipodi.sourceforge.net/DTD/sodipodi-0.dtd"
   xmlns="http://www.w3.org/2000/svg"
   xmlns:svg="http://www.w3.org/2000/svg"><sodipodi:namedview
     id="namedview7"
     pagecolor="#505050"
     bordercolor="#ffffff"
     borderopacity="1"
     inkscape:showpageshadow="0"
     inkscape:pageopacity="0"
     inkscape:pagecheckerboard="1"
     inkscape:deskcolor="#505050"
     inkscape:document-units="px"
     showgrid="false" /><defs
     id="defs2" /><path
     id="path400"
     style="fill:#ffffff;fill-opacity:1;stroke-width:0.777871"
     inkscape:label="cloud"
     d="m 369.42383,64.453125 c -8.7769,-0.116483 -15.81807,1.619406 -22.79102,5.335937 -20.94332,11.162671 -34.67224,37.834558 -38.58008,74.953128 -0.62845,5.9694 -1.2683,10.97924 -1.42187,11.13281 -0.15357,0.15357 -2.5066,-0.4745 -5.23047,-1.39648 -4.28334,-1.44987 -6.16155,-1.62712 -13.89844,-1.30664 -5.43916,0.22532 -10.26497,0.86117 -12.31054,1.62304 -3.18987,1.18806 -3.52121,1.17393 -6.40039,-0.29492 -5.29389,-2.70075 -12.91783,-4.08113 -19.79297,-3.58203 -7.73183,0.56129 -23.89392,5.017 -31.04493,8.55859 l -5.375,2.66211 -3.91406,-3.09375 c -8.17354,-6.46081 -17.79382,-10.01187 -27.21875,-10.04687 l -6.38086,-0.0234 0.0176,-12.97852 c 0.0134,-9.90065 -0.31938,-14.4201 -1.40625,-19.05468 -3.14203,-13.39804 -8.48085,-22.72766 -18.77734,-32.818363 -7.23174,-7.087222 -13.93294,-11.337899 -21.80469,-13.832031 -7.73904,-2.452044 -21.30229,-2.408865 -31.11328,0.09961 -13.2403,3.385267 -26.137326,10.751284 -38.888673,22.208984 -5.592401,5.025036 -20.120353,21.99581 -25.039063,29.25 -7.532227,11.10867 -13.645039,28.5607 -17.845703,50.95117 -1.195428,6.37194 -1.447824,11.29476 -1.396484,27.22461 0.07349,22.81269 0.620945,25.69555 7.710937,40.61133 8.826869,18.56979 14.801263,27.0063 24.728516,34.91797 7.278236,5.80053 13.323166,9.13131 21.169922,11.66211 6.10203,1.96807 5.779328,1.18389 4.398437,10.63086 -0.640213,4.38016 -4.948252,11.41001 -4.382812,25.66992 2.287555,57.6906 11.335815,96.30829 26.990234,110.95117 5.014779,4.69075 13.736229,9.76077 20.621099,11.99023 7.41301,2.4005 21.30539,0.40869 28.32812,-1.77148 5.54034,-1.71995 22.56981,-12.29359 35.69336,-22.16406 4.48003,-3.36952 13.33188,-11.29112 19.67187,-17.60156 l 11.52735,-11.47266 8.91211,6.08594 c 10.49192,7.16463 20.18764,11.60202 34.29687,15.69726 17.10139,4.96374 23.30625,5.34906 33.52149,2.07617 6.32766,-2.02735 18.02606,-9.73548 23.67578,-15.59961 4.9379,-5.12527 4.82325,-5.10942 11.8164,-1.59375 2.0998,1.05563 7.79054,2.76098 12.64454,3.78907 10.50388,2.22477 20.74911,2.43711 29.78125,0.61718 l 6.21484,-1.25195 4.91016,3.09961 c 7.65713,4.83591 15.11631,8.36274 24.36132,11.51563 7.47135,2.54797 9.63586,2.94277 17.83789,3.2539 15.8509,0.60128 29.77597,-2.62431 39.55079,-9.16211 6.70735,-4.48613 16.86397,-14.93906 20.60351,-21.20508 7.23821,-12.12814 9.75493,-22.76048 9.79883,-41.39453 0.0271,-11.53126 -0.19739,-14.01932 -1.75586,-19.43945 -4.28834,-14.91444 -7.98788,-21.69809 -17.7168,-32.48438 -7.08025,-7.84982 -12.67876,-12.29894 -19.56054,-15.54687 -6.74956,-3.18552 -6.67395,-4.78957 0.43554,-9.38867 7.07731,-4.57828 12.25075,-9.89527 18.91797,-19.44141 10.27002,-14.70444 13.31522,-23.47019 13.29492,-38.26953 -0.009,-6.97189 -0.42462,-10.88562 -1.64062,-15.45898 -2.36728,-8.90352 -10.64352,-27.86819 -14.94922,-34.25586 -7.42226,-11.0113 -19.9344,-23.003 -28.18555,-27.01172 l -3.625,-1.75977 v -9.07812 c 0,-23.01409 -5.12294,-35.276217 -19.35547,-46.320314 -10.9896,-8.527644 -17.48656,-11.465657 -31.59375,-14.287109 -6.87738,-1.375479 -12.76901,-2.111751 -18.03515,-2.181641 z m -6.30274,25.830078 c 5.49354,-0.399811 12.43377,0.440797 17.78516,2.322266 10.89315,3.829769 21.55273,17.146481 21.55273,26.925781 0,4.08801 -1.81229,10.93594 -3.70898,14.01367 -2.50212,4.06009 -6.78876,7.88273 -9.72656,8.67383 -2.60367,0.70109 -3.48605,0.54338 -7.06641,-1.26953 -5.70811,-2.89032 -9.47562,-8.75414 -6.38672,-9.93945 0.61346,-0.23538 2.39381,0.58978 3.95703,1.83203 3.62906,2.88403 5.58458,3.48458 7.67969,2.36328 2.47644,-1.32534 5.91898,-7.99781 6.45313,-12.50781 0.44285,-3.73923 0.28105,-4.21446 -3.09961,-9.15821 -7.154,-10.4618 -10.35424,-12.07746 -24.00391,-12.12109 -6.20193,-0.0195 -6.99218,0.15841 -10.0625,2.27539 -7.39289,5.09722 -11.31093,13.96202 -11.81055,26.72266 -0.17756,4.53513 -0.0451,10.34514 0.29297,12.9121 0.33802,2.56697 0.80491,6.41751 1.03906,8.55665 0.23417,2.13914 0.63222,5.29064 0.88282,7.00195 0.65343,4.46224 4.86524,25.42194 5.14844,25.61914 0.1308,0.0911 3.97166,-0.0355 8.5332,-0.28125 9.93659,-0.53479 13.4467,-0.0531 15.64648,2.14648 4.58494,4.58492 -3.52035,9.26022 -15.67383,9.04102 -7.38544,-0.13325 -7.38733,-0.1287 -4.8164,8.31445 0.82795,2.71897 1.46964,5.8191 1.42773,6.88867 -0.0419,1.06957 0.50737,5.6639 1.21875,10.21094 1.78676,11.42099 1.70307,16.28126 -0.32031,18.85352 -2.54086,3.23017 -5.66834,2.80748 -8.13477,-1.09961 -2.64404,-4.18844 -3.40109,-6.28706 -4.70312,-13.0332 -0.60307,-3.12455 -1.52205,-6.44886 -2.04297,-7.38868 -0.52089,-0.93975 -1.21742,-4.1595 -1.54687,-7.15429 -0.86483,-7.86179 -1.76846,-13.08826 -2.45508,-14.19922 -0.34889,-0.56457 -2.223,-0.96875 -4.49219,-0.96875 -3.81616,0 -6.76904,-0.98329 -7.82227,-2.60352 -1.0804,-1.66207 1.03516,-3.52302 6.02539,-5.29687 l 5.13477,-1.82422 -0.47656,-2.72266 c -0.26137,-1.4974 -0.66921,-4.47219 -0.90821,-6.61133 -0.23899,-2.13914 -0.91329,-5.16781 -1.49804,-6.73046 -0.58476,-1.56267 -0.87807,-4.01318 -0.65039,-5.44532 0.22767,-1.43213 -0.13881,-6.79004 -0.81446,-11.90625 -1.89372,-14.33994 -1.37727,-25.38383 1.70704,-36.51562 1.28064,-4.6221 5.97511,-13.29318 9.03125,-16.683596 2.73578,-3.035014 9.37595,-7.07183 13.80664,-8.392578 1.39733,-0.41651 3.06725,-0.687042 4.89843,-0.820313 z m -246.13281,1.908203 c 13.36377,0.04353 19.64684,2.667311 24.14063,10.082034 3.61755,5.96898 4.60184,11.0349 3.76757,19.39062 -0.37814,3.78714 -1.00091,7.7605 -1.38476,8.83008 -0.38384,1.06957 -1.12238,4.04435 -1.64063,6.61133 -2.24269,11.10853 -12.46215,26.71179 -22.55664,34.43945 -3.97811,3.04537 -8.90613,4.29076 -15.48047,3.91016 -7.490754,-0.43367 -9.117691,-1.39436 -11.966792,-7.06836 -2.062763,-4.10809 -2.124742,-4.555 -1.337891,-9.48047 0.45415,-2.84288 1.110903,-5.7612 1.458984,-6.48437 0.348081,-0.72327 1.404762,-2.91985 2.34961,-4.88086 2.670975,-5.54373 6.007709,-9.11657 9.484379,-10.15821 4.60278,-1.37901 5.53402,0.011 2.39843,3.58203 -1.33909,1.5251 -2.99588,3.85937 -3.68164,5.18555 -2.992949,5.78766 -4.45503,16.47663 -2.51758,18.41406 2.25965,2.25964 9.76513,0.22148 13.74219,-3.73242 10.62687,-10.56503 18.07171,-26.38187 19.64258,-41.73633 0.72687,-7.10475 0.67995,-7.57419 -0.99023,-10.01172 -2.47539,-3.61258 -4.90499,-4.75736 -11.29297,-5.32226 -6.16005,-0.54466 -12.45294,0.52955 -16.19922,2.76367 -1.28348,0.76535 -3.18874,1.76149 -4.23242,2.21484 -3.625882,1.57518 -13.078833,10.39516 -16.230472,15.14258 -1.136083,1.71131 -3.339258,4.86086 -4.894532,7 -7.458587,10.25855 -14.756241,30.77866 -17.384765,48.88086 -0.30071,2.07085 -0.716418,4.52137 -0.923829,5.44531 -0.20741,0.92388 -0.513942,6.7865 -0.68164,13.02735 -0.263169,9.79432 -0.08506,12.0833 1.302734,16.72461 3.957722,13.23662 9.768006,19.86727 18.638672,21.26953 5.327507,0.84221 9.415639,-0.40986 15.84961,-4.85352 2.994798,-2.06835 7.860442,-5.39869 10.812502,-7.40039 2.95204,-2.00161 7.57939,-5.47656 10.2832,-7.72265 5.50444,-4.57263 7.65717,-5.06969 9.01758,-2.08399 0.79686,1.74897 0.58167,2.60095 -1.72656,6.80664 -2.5321,4.61363 -6.621,10.08881 -12.13672,16.25391 -1.42265,1.59012 -6.24977,5.38968 -10.72657,8.44336 l -8.14062,5.55273 -7.248047,0.26172 c -3.986778,0.14437 -8.298545,-0.0248 -9.582031,-0.37695 -1.283485,-0.35222 -3.384484,-1.17259 -4.667969,-1.82227 -1.283485,-0.64967 -4.348427,-2.11732 -6.810547,-3.26172 -2.46213,-1.14448 -4.876511,-2.84286 -5.367187,-3.77343 -0.490677,-0.93049 -1.92236,-2.74191 -3.181641,-4.02539 -2.322284,-2.36689 -6.03125,-9.1582 -6.03125,-11.04493 0,-0.56754 -0.344256,-1.63987 -0.765625,-2.38281 -0.421357,-0.74288 -1.489988,-3.57823 -2.373047,-6.30078 -1.315325,-4.05534 -1.582188,-6.72496 -1.478515,-14.76758 0.06963,-5.39943 0.466474,-10.6971 0.880859,-11.77344 0.414395,-1.07641 1.024314,-4.62556 1.357422,-7.88476 0.333129,-3.25927 1.179638,-7.07486 1.880859,-8.48047 0.701211,-1.40562 1.275391,-4.08767 1.275391,-5.96094 0,-1.8732 0.554677,-4.70823 1.232422,-6.29883 0.677743,-1.59065 1.55272,-5.0839 1.943359,-7.76171 0.39064,-2.67782 1.017743,-5.47785 1.394531,-6.22266 1.464103,-2.89414 3.208985,-7.27952 3.208985,-8.06641 0,-0.45421 0.647414,-1.755 1.439453,-2.89062 0.792038,-1.1356 2.037158,-3.63923 2.767578,-5.56446 0.73042,-1.92522 2.343977,-4.90197 3.583984,-6.61328 1.240007,-1.71131 3.661481,-5.38512 5.38086,-8.16601 5.766066,-9.32587 18.071392,-18.821579 30.826176,-23.785158 4.66646,-1.816024 6.50301,-2.095454 13.57226,-2.072266 z m 315.88086,67.070314 c 1.4135,0.0158 2.91262,0.64016 4.04688,1.86914 1.60072,1.73442 4.80297,8.12822 10.56445,21.0918 4.92852,11.08939 7.49138,27.28496 6.07812,38.40429 -0.36067,2.83775 -1.76377,7.41172 -3.2832,10.70117 -4.10207,8.88071 -10.08567,14.10885 -18.66406,16.3086 -2.34347,0.6009 -6.13275,1.57427 -8.41992,2.16211 -3.51082,0.90232 -4.63152,0.90421 -7.19532,0.0117 -1.67021,-0.58146 -3.63144,-1.06199 -4.35937,-1.06836 -2.11027,-0.0187 -16.22967,-7.74548 -20.06836,-10.98242 -5.07007,-4.27541 -7.79007,-10.21184 -5.87695,-12.82813 1.44454,-1.97556 6.18513,-0.82868 8.82421,2.13477 3.81694,4.28598 15.20645,8.79446 21.94532,8.6875 12.52923,-0.19882 17.05304,-2.53486 22.12109,-11.41797 2.2989,-4.02937 2.69178,-7.30874 1.5332,-12.82422 l -0.71093,-3.38086 -2.53516,2.78516 c -3.95571,4.34704 -7.34299,5.65758 -15.09375,5.83789 -6.03688,0.14041 -7.28917,-0.09 -11.9668,-2.21094 -2.87321,-1.30277 -5.98496,-3.18889 -6.91406,-4.19141 -3.07891,-3.32219 -9.23094,-13.24479 -10.18945,-16.43359 -1.40654,-4.67935 -2.1834,-16.76215 -1.23633,-19.23242 1.19389,-3.11413 3.62544,-4.15975 6.02148,-2.58985 2.23011,1.46123 2.71696,2.58198 4.57813,10.51563 2.34165,9.98169 6.33305,16.75043 11.74805,19.92383 4.21423,2.46973 9.58537,2.76479 13.45703,0.74218 4.46512,-2.33267 10.18945,-8.59962 10.18945,-11.15625 0,-1.22733 -1.59768,-6.75576 -3.55078,-12.28711 -5.89712,-16.70118 -5.91061,-16.75056 -4.57617,-18.7871 0.79116,-1.20749 2.1197,-1.80094 3.5332,-1.78516 z m -258.04492,12.47461 c 2.76548,0.0968 5.34511,0.81296 7.61133,2.14258 8.34993,4.89885 9.54206,6.0382 12.51367,11.9707 2.62516,5.24089 3.38218,8.22484 4.70312,18.54101 0.72712,5.67853 -3.63853,21.79519 -7.33203,27.06836 -3.20594,4.57714 -14.13535,10.27528 -19.69531,10.26758 -1.29833,0 -4.11086,-0.87275 -6.25,-1.93554 -12.44455,-6.1829 -19.16643,-24.69633 -15.5,-42.69141 1.63977,-8.04807 3.65746,-13.15324 6.7793,-17.15234 3.70442,-4.74548 3.93959,-4.92955 8.4414,-6.64063 3.01185,-1.14475 5.96304,-1.66717 8.72852,-1.57031 z m 72.76562,3.0957 c 4.72322,0 12.17196,5.42936 15.18946,11.07227 1.31192,2.45339 2.62398,4.46604 2.91601,4.47265 0.29204,0.007 0.75915,-0.70427 1.03711,-1.58007 0.27795,-0.87572 2.23236,-3.66799 4.34375,-6.20508 3.24591,-3.90032 4.46667,-4.78418 7.90821,-5.72657 5.38184,-1.47367 10.99952,-1.5345 13.68359,-0.14648 2.68665,1.38928 7.36174,6.48854 9.10547,9.92969 0.71755,1.41595 1.76844,3.10735 2.33594,3.75781 1.38901,1.59191 6.94141,18.58141 8.41015,25.73633 2.89275,14.09196 -2.61173,23.51432 -8.69922,14.89258 -0.83132,-1.17739 -2.22202,-4.94066 -3.09179,-8.36328 -3.85086,-15.15321 -4.86342,-18.35424 -6.69141,-21.14649 -1.06878,-1.63251 -2.93146,-4.89304 -4.13867,-7.24609 -1.84349,-3.5933 -2.49888,-4.24493 -4.08985,-4.06641 -2.00813,0.22519 -2.91317,1.04421 -6.64257,6.00391 -3.02139,4.01816 -3.64255,5.27629 -5.375,10.89648 -0.79126,2.56697 -1.74278,5.47231 -2.11524,6.45508 -0.37244,0.98268 -0.67773,3.5313 -0.67773,5.66406 0,6.98106 -3.1475,11.95683 -7,11.06446 -4.17258,-0.96649 -4.83257,-2.69708 -6.65625,-17.48243 -1.80519,-14.63546 -3.7792,-20.18915 -8.60742,-24.21875 -1.37701,-1.14922 -1.98108,-1.22385 -3.66407,-0.45703 -4.17497,1.9022 -6.98734,8.20639 -8.64062,19.36524 -0.82977,5.60058 -0.18523,11.92588 2.29883,22.55664 0.33956,1.45314 -0.15974,2.68354 -1.97461,4.86328 -2.82793,3.39642 -5.16214,3.73688 -7.625,1.11523 -0.93023,-0.99015 -1.69141,-2.74926 -1.69141,-3.91015 0,-1.1609 -1.20014,-7.61352 -2.66797,-14.33985 -3.05154,-13.98375 -4.96201,-33.42212 -3.62891,-36.92773 1.55143,-4.07978 6.01689,-2.2969 7.91993,3.16211 1.09017,3.12727 1.74728,3.11149 3.72461,-0.0879 3.12933,-5.06338 9.69915,-9.10352 14.80468,-9.10352 z m -74.56836,11.16016 c -2.92581,0.29886 -4.03648,0.95013 -7.11914,4.18164 -3.3825,3.54583 -3.69321,4.21311 -4.20898,9.02929 -0.72536,6.77338 -0.15811,12.19489 1.91602,18.31446 1.74641,5.15269 5.54373,10.6751 7.72656,11.23633 2.55396,0.65668 7.55582,-0.54638 10.01367,-2.40821 1.39044,-1.05324 2.52734,-2.49535 2.52734,-3.20508 0,-0.70964 0.54051,-2.06066 1.20117,-3.0039 1.74186,-2.48685 2.62122,-14.22827 1.51172,-20.17969 -1.67842,-9.00305 -7.13783,-14.62175 -13.56836,-13.96484 z m 99.02344,74.66406 c 0.24118,0.0467 0.46013,0.15934 0.64649,0.3457 1.01622,1.01621 -0.9327,24.56239 -2.89844,35.01953 -1.18486,6.30309 -3.23931,34.86805 -2.55664,35.55079 0.2386,0.23858 1.44577,0.0438 2.68164,-0.4336 3.26865,-1.26225 16.97785,-3.84375 20.41406,-3.84375 3.76992,0 8.15118,3.58552 7.75977,6.34961 -0.27388,1.93417 -2.61235,2.86534 -13.93164,5.54883 -7.66034,1.8161 -16.05363,5.78509 -16.56836,7.83594 -0.23385,0.93174 0.0623,3.78493 0.65625,6.33984 0.59391,2.55484 0.90257,5.52429 0.6875,6.59961 -0.39976,1.99882 2.26721,13.49535 3.49609,15.07031 0.37431,0.47971 0.91045,2.08244 1.19141,3.56055 0.28095,1.47811 1.62299,5.09787 2.98047,8.04297 2.79365,6.06092 2.47325,7.77487 -1.52344,8.17578 -1.758,0.17635 -3.08633,-0.38827 -5.12891,-2.18164 -3.82098,-3.35488 -6.36798,-8.20524 -9.88476,-18.83203 -2.298,-6.94389 -4.625,-18.10809 -4.625,-22.18164 0,-0.53883 -1.92449,-0.11608 -4.16211,0.91406 -8.12397,3.74015 -13.42175,4.98418 -16.38868,3.8457 -1.89973,-0.72902 -1.48657,-4.75767 0.81641,-7.96093 2.14423,-2.98251 2.96606,-3.52933 13.23633,-8.80469 6.96077,-3.57548 7.24715,-4.05982 7.26758,-12.32227 0.01,-4.00797 2.53414,-24.83303 4.33789,-35.78125 1.13088,-6.86407 3.47515,-16.6593 5.93945,-24.81836 1.04556,-3.46178 3.86841,-6.36582 5.55664,-6.03906 z m -142.02734,1.31445 c 5.13273,-0.0927 9.49965,1.69334 12.66211,5.36524 3.37628,3.92014 5.10317,9.00335 6.09765,17.95508 1.6657,14.99374 -0.79753,24.79607 -11.39843,45.35937 -0.17926,0.34771 1.54605,0.56299 3.83398,0.47852 4.72261,-0.17448 12.5423,0.64156 15.4375,1.61132 1.06957,0.35829 2.87131,0.85186 4.00391,1.09766 2.22918,0.48384 6.8929,4.02601 12.13867,9.2207 2.46323,2.43924 3.81963,4.76525 5.32031,9.11914 3.78958,10.99441 3.28505,18.85049 -1.91211,29.74805 -1.68695,3.53729 -3.32052,7.2857 -3.6289,8.32813 -0.30839,1.04241 -1.66087,2.9667 -3.00586,4.27734 -1.34499,1.31063 -3.48891,3.77844 -4.76368,5.48437 -3.63735,4.86753 -7.24018,7.97067 -14.375,12.38282 -7.53324,4.65859 -9.74697,5.53956 -17.89062,7.11328 -5.81478,1.1237 -7.97976,1.2286 -11.66797,0.5664 -3.28222,-0.58931 -6.10386,-3.93427 -6.67969,-7.91796 -0.28449,-1.96809 -0.85614,-4.00218 -1.26953,-4.52149 -0.41339,-0.5193 -1.08464,-3.6295 -1.49219,-6.91211 -0.40755,-3.28268 -1.20419,-6.88392 -1.76953,-8.00195 -0.56533,-1.11811 -1.44558,-4.48372 -1.95703,-7.47852 -0.51147,-2.99479 -1.61532,-9.12107 -2.45312,-13.61328 -3.81406,-20.45073 -4.82194,-26.4739 -5.398441,-32.28125 -0.339749,-3.42262 -0.819025,-7.27316 -1.066406,-8.55664 -0.247392,-1.28349 -0.826182,-4.25828 -1.285156,-6.61133 -0.458975,-2.35305 -1.168387,-6.90262 -1.576172,-10.11132 -0.407785,-3.20872 -1.086986,-7.97551 -1.509766,-10.5918 -1.176239,-7.27906 -0.910228,-10.34266 1.392579,-16.00781 3.073945,-7.56214 9.512172,-15.00121 16.957032,-19.59571 6.22475,-3.84147 12.12313,-5.81353 17.25586,-5.90625 z m 284.01953,12.96289 c 5.20501,0.26245 6.01886,0.53684 9.125,3.08203 3.36361,2.75622 3.41016,2.86068 3.41016,7.63672 0,5.34396 -0.29092,5.77082 -6.03125,8.85352 -6.15331,3.30448 -10.22871,1.06203 -7.70118,-4.23828 1.48125,-3.1062 0.8576,-4.32696 -1.93554,-3.78906 -1.88502,0.36303 -7.54427,5.65931 -8.95313,8.3789 -1.48654,2.86948 -0.77075,4.96444 2.90821,8.50391 2.8505,2.74238 14.98069,9.15429 17.31835,9.15429 0.59473,0 3.29415,0.70782 6,1.57227 12.15499,3.88305 23.64836,14.40767 27.18165,24.89063 1.95793,5.80897 2.52989,14.26169 1.15624,17.09765 -0.51806,1.06957 -1.13786,3.2162 -1.37695,4.76953 -0.56603,3.67738 -6.57459,11.56528 -11.17187,14.66797 -12.52412,8.4524 -25.05198,11.62861 -35.67383,9.04297 -6.12001,-1.48977 -12.43658,-4.96141 -16.94336,-9.31055 -3.43733,-3.31707 -4.45157,-4.94958 -5.92188,-9.54687 -3.21252,-10.04478 -0.38186,-18.85509 8.11915,-25.27344 4.97981,-3.75975 9.93607,-4.71458 15.38867,-2.96289 7.16353,2.30133 10.63672,6.65576 10.63672,13.33789 0,3.50555 -0.41742,4.83833 -2.33985,7.49219 -2.04791,2.82701 -2.71245,3.22851 -5.34961,3.22851 -4.30415,0 -5.35116,-1.5429 -3.63281,-5.35351 1.80949,-4.01273 1.36854,-6.40096 -1.35156,-7.30274 -5.0719,-1.68152 -9.92429,2.07927 -11.44336,8.86719 -0.83892,3.74871 -0.79379,4.61047 0.36914,6.85938 1.97206,3.81349 4.88539,6.01636 10.43359,7.89258 4.91641,1.66262 9.75875,1.75588 16.81446,0.32226 5.42425,-1.10208 13.5056,-8.38723 16.45703,-14.83398 2.76118,-6.03122 3.28817,-13.84298 1.20703,-17.87305 -3.68981,-7.14527 -12.14527,-12.66839 -26.89453,-17.56445 -3.90808,-1.29725 -7.65856,-2.85742 -8.33399,-3.4668 -0.67543,-0.60946 -1.78917,-1.10742 -2.47656,-1.10742 -1.3908,0 -9.90685,-9.22733 -10.98633,-11.9043 -0.37904,-0.93989 -1.13213,-2.75948 -1.67578,-4.04297 -1.29034,-3.0463 -0.84634,-8.84637 0.94336,-12.30859 2.14084,-4.14162 10.06226,-11.98506 13.75195,-13.61719 2.48109,-1.0975 4.62336,-1.37366 8.97266,-1.1543 z m -285.19141,0.55274 c -0.96187,0.0131 -2.00897,0.15282 -3.11132,0.42773 -5.70704,1.42335 -10.18082,4.37965 -16.40821,10.8418 -6.68366,6.93564 -9.0106,10.91917 -8.40625,14.39648 0.90741,5.22091 4.45301,20.57433 5.85742,25.36524 0.8152,2.78089 1.89945,7.5052 2.41016,10.5 1.62207,9.51179 1.99474,9.86415 5.98633,5.64062 1.3141,-1.39044 2.87088,-3.46724 3.45898,-4.61523 2.04352,-3.98883 7.12709,-12.69951 8.08789,-13.85938 2.00027,-2.41474 6.83876,-14.62276 8.17188,-20.61914 1.1539,-5.19024 1.27145,-7.65432 0.70703,-14.77929 -0.37254,-4.70285 -0.89739,-9.31076 -1.16602,-10.23828 -0.57962,-2.00142 -2.70225,-3.09993 -5.58789,-3.06055 z m 221.57813,8.71679 c 5.79544,0.61145 9.70803,6.5272 8.79687,15.06055 -0.48864,4.57622 -3.40328,13.98443 -4.94922,15.97461 -0.33234,0.42783 -0.83297,1.73862 -1.11328,2.91211 -0.28031,1.17358 -1.81711,4.22218 -3.41406,6.77539 -1.59696,2.5532 -4.30432,6.94276 -6.01562,9.75391 -2.95988,4.86214 -9.26732,12.0625 -10.56641,12.0625 -0.33431,0 -0.80141,0.61254 -1.03906,1.36133 -0.23763,0.74869 -2.0223,2.3208 -3.96485,3.49414 -4.96107,2.99658 -5.15334,4.12431 -1.3125,7.70703 3.26399,3.04458 4.77505,3.46057 11.04883,3.03711 4.8862,-0.32982 13.68488,-4.81748 20.75195,-10.58399 l 2.47071,-2.01562 0.88476,1.65234 c 0.73039,1.3647 0.5444,2.22258 -1.0664,4.91797 -2.67729,4.47991 -9.48166,10.84876 -13.70508,12.82812 -3.03114,1.42056 -9.73195,3.36725 -10.89063,3.16407 -0.21391,-0.0373 -2.69997,-0.48762 -5.52343,-1 -10.73801,-1.94864 -17.48493,-11.03831 -17.97657,-24.22071 -0.30683,-8.22683 0.81806,-15.15032 3.72071,-22.90039 0.56081,-1.49739 1.25405,-3.56006 1.54101,-4.58398 0.28699,-1.02391 1.53236,-3.45464 2.76758,-5.40234 1.2352,-1.9477 2.24609,-3.95052 2.24609,-4.44922 0,-0.49868 1.81395,-3.66803 4.03125,-7.04297 4.45999,-6.78855 12.76726,-15.23445 16.9629,-17.2461 2.24115,-1.07454 4.38263,-1.45967 6.31445,-1.25586 z m -139.92578,0.3086 c 1.95618,0 5.27148,4.4901 5.27148,7.13867 0,4.49648 -3.76993,9.97461 -6.86328,9.97461 -0.58932,0 -2.26218,-1.18991 -3.7168,-2.64453 -2.80969,-2.80967 -3.39139,-5.75137 -1.82226,-9.19531 0.93919,-2.06128 5.28222,-5.27344 7.13086,-5.27344 z m 138.73437,8.68555 c -0.84883,-0.219 -2.25952,0.93959 -5.74609,4.34375 -5.49049,5.36068 -9.23174,10.60606 -12.98633,18.20312 -1.5344,3.10479 -3.07513,6.01118 -3.42578,6.45898 -0.35063,0.4479 -0.83209,1.68825 -1.06836,2.75782 -0.23626,1.06958 -0.96878,3.39779 -1.62891,5.17383 -0.66013,1.77594 -1.41244,5.08657 -1.67187,7.35546 -0.25941,2.26896 -0.64514,4.40383 -0.85547,4.74415 -0.96085,1.55472 1.48983,0.3329 5.2793,-2.63086 6.99476,-5.47076 8.40009,-7.46436 16.06836,-22.81055 6.89906,-13.80681 8.67508,-19.84069 6.7539,-22.94922 -0.21449,-0.34704 -0.43581,-0.57349 -0.71875,-0.64648 z m -139.5918,20.0957 c 1.9957,0 5.83588,1.99354 6.3125,3.27734 0.20442,0.55066 0.30057,10.90204 0.21485,23.00196 l -0.15625,22 -2.21094,2.30859 c -2.73259,2.85221 -6.04414,3.09109 -7.68555,0.55664 -1.10227,-1.70198 -1.70168,-5.74922 -2.39062,-16.14062 -0.18436,-2.78088 0.0583,-10.94574 0.53906,-18.14454 0.72322,-10.82888 1.13043,-13.41278 2.35742,-14.97265 0.81565,-1.03689 2.1737,-1.88672 3.01953,-1.88672 z m -72.32226,32.57422 -5.99414,2.40039 c -3.29683,1.32004 -7.02573,3.26639 -8.28516,4.32617 -2.41995,2.03622 -5.87621,2.49496 -8.44336,1.12109 -1.33058,-0.71207 -1.50586,-0.53721 -1.50586,1.50586 0,1.27072 0.35643,3.24559 0.79102,4.38868 0.43461,1.14307 1.67677,6.50297 2.76172,11.9121 1.86972,9.3217 2.81881,13.07959 4.29101,16.99219 0.35399,0.94077 1.06187,4.78933 1.57227,8.55469 0.5104,3.76529 1.19753,7.19718 1.52734,7.625 0.88826,1.15227 6.07067,1.31774 9.23633,0.29492 5.208,-1.68269 17.3425,-10.34073 21.63086,-15.43359 2.2461,-2.6674 4.08399,-5.12922 4.08399,-5.46875 0,-0.33955 1.66312,-3.54139 3.69531,-7.11719 3.55452,-6.2543 3.69112,-6.72354 3.58984,-12.33594 -0.11008,-6.0999 -1.46478,-10.43595 -3.91406,-12.52734 -4.404,-3.76045 -7.29008,-4.74045 -16.17188,-5.49024 z" /></svg>
