<?xml version="1.0" encoding="UTF-8" standalone="no"?>
<!-- Created with Inkscape (http://www.inkscape.org/) -->

<svg
   width="512"
   height="512"
   viewBox="0 0 512 512"
   version="1.1"
   id="svg5"
   xml:space="preserve"
   xmlns:inkscape="http://www.inkscape.org/namespaces/inkscape"
   xmlns:sodipodi="http://sodipodi.sourceforge.net/DTD/sodipodi-0.dtd"
   xmlns="http://www.w3.org/2000/svg"
   xmlns:svg="http://www.w3.org/2000/svg"><sodipodi:namedview
     id="namedview7"
     pagecolor="#505050"
     bordercolor="#ffffff"
     borderopacity="1"
     inkscape:showpageshadow="0"
     inkscape:pageopacity="0"
     inkscape:pagecheckerboard="1"
     inkscape:deskcolor="#505050"
     inkscape:document-units="px"
     showgrid="false" /><defs
     id="defs2" /><g
     id="g1511"
     inkscape:label="logo"
     transform="matrix(1.0695718,0,0,1.0695718,-22.646121,-20.954723)"><path
       style="fill:#e1ca08;fill-opacity:1;stroke-width:0.727273"
       d="M 133.4114,437.01075 C 126.97437,434.9263 118.82094,430.1847 114.13235,425.79907 99.49618,412.10864 91.036442,376.00298 88.897682,322.06489 c -0.52866,-13.33236 3.49773,-19.90473 4.0963,-23.99999 1.29107,-8.83249 1.59431,-8.09929 -4.11081,-9.93935 -7.33636,-2.36618 -12.98907,-5.47987 -19.79389,-10.9031 -9.28153,-7.39706 -14.86752,-15.28469 -23.12024,-32.6466 -6.62882,-13.94557 -7.1404,-16.63999 -7.20911,-37.96881 -0.048,-14.89369 0.18818,-19.49707 1.30585,-25.45455 3.92743,-20.93407 9.64209,-37.25026 16.68438,-47.63636 4.59877,-6.78234 18.18161,-22.65001 23.41025,-27.34819 11.92193,-10.712429 23.980038,-17.598419 36.359118,-20.763489 9.17283,-2.34531 21.85526,-2.38605 29.09091,-0.0935 7.35973,2.3319 13.6246,6.3062 20.38594,12.93243 9.62675,9.434349 14.61701,18.156689 17.55466,30.683249 1.01618,4.33312 1.32823,8.55846 1.3157,17.81512 l -0.0164,12.13472 5.96532,0.0221 c 8.81188,0.0327 17.80683,3.35284 25.44872,9.39341 l 3.65873,2.89205 5.0255,-2.48891 c 6.68586,-3.31123 21.79658,-7.47694 29.02549,-8.00172 6.42794,-0.46663 13.55691,0.82315 18.50645,3.34822 2.69191,1.37331 3.00212,1.38766 5.9845,0.27688 1.91252,-0.71231 6.42368,-1.3073 11.50905,-1.51797 7.23363,-0.29964 8.98925,-0.13469 12.99398,1.22087 2.54669,0.86202 4.74781,1.44984 4.89139,1.30626 0.14358,-0.14358 0.7418,-4.82742 1.32938,-10.40854 3.65365,-34.70417 16.48942,-59.641719 36.07047,-70.078309 10.43101,-5.55966 21.02254,-6.37783 38.16933,-2.94847 13.18958,2.63793 19.26403,5.38487 29.53881,13.35783 13.30677,10.325729 18.09757,21.790039 18.09757,43.307169 v 8.48709 l 3.38926,1.64664 c 7.71446,3.74797 19.41244,14.95827 26.35191,25.25334 4.02563,5.97218 11.76373,23.70428 13.97703,32.02867 1.1369,4.27588 1.5251,7.93369 1.5338,14.4521 0.019,13.8367 -2.8292,22.03385 -12.4312,35.78184 -6.23355,8.92521 -11.07075,13.89609 -17.68771,18.17657 -6.64705,4.29996 -6.71635,5.79872 -0.40582,8.77703 6.43415,3.03666 11.66722,7.19616 18.28693,14.53539 9.0961,10.08469 12.5558,16.428 16.5652,30.37232 1.4571,5.06758 1.6672,7.39383 1.6419,18.17503 -0.041,17.42199 -2.3937,27.36178 -9.1611,38.70105 -3.4963,5.85844 -12.99212,15.63166 -19.26319,19.826 -9.13901,6.11254 -22.15897,9.12878 -36.97883,8.56661 -7.66853,-0.29089 -9.69169,-0.65996 -16.67705,-3.04221 -8.64367,-2.9478 -15.6191,-6.24474 -22.77817,-10.76609 l -4.5909,-2.89943 -5.8099,1.17067 c -8.44463,1.70155 -18.02389,1.50304 -27.84454,-0.57702 -4.53826,-0.96122 -9.85764,-2.5552 -11.82086,-3.54217 -6.53828,-3.28699 -6.43227,-3.30129 -11.04899,1.49061 -5.28223,5.48269 -16.21907,12.68856 -22.13515,14.58405 -9.55078,3.06 -15.35141,2.70096 -31.34043,-1.93991 -13.19149,-3.82887 -22.2563,-7.97782 -32.06576,-14.67642 l -8.33333,-5.6906 -10.77746,10.72722 c -5.92761,5.89998 -14.20452,13.30479 -18.39315,16.45514 -12.26992,9.22844 -28.19004,19.11497 -33.37001,20.72305 -6.56593,2.03836 -19.55528,3.90116 -26.48611,1.6568 z"
       id="path400"
       sodipodi:nodetypes="csscsssssssssssscsscsssssssssssscssssssssssssssscssssssscssscc"
       inkscape:label="cloud" /><path
       style="fill:#ff017b;fill-opacity:1;stroke-width:0.727273"
       d="m 134.18018,412.34565 c -3.06872,-0.55098 -5.70696,-3.67811 -6.24534,-7.40269 -0.26598,-1.84007 -0.79982,-3.74276 -1.18632,-4.22829 -0.3865,-0.48552 -1.01448,-3.39389 -1.39552,-6.46298 -0.38104,-3.06916 -1.12525,-6.43556 -1.65381,-7.48087 -0.52856,-1.04538 -1.35228,-4.19157 -1.83047,-6.99157 -0.4782,-2.8 -1.51033,-8.52727 -2.29363,-12.72727 -3.56597,-19.12051 -4.50762,-24.75221 -5.04662,-30.18181 -0.31765,-3.2 -0.7668,-6.8 -0.99809,-8 -0.2313,-1.2 -0.77164,-3.98182 -1.20076,-6.18182 -0.42912,-2.2 -1.09216,-6.45455 -1.47342,-9.45455 -0.38126,-3 -1.01661,-7.45592 -1.41189,-9.90203 -1.09973,-6.8056 -0.85049,-9.66931 1.30253,-14.96597 2.874,-7.07025 8.89304,-14.02647 15.85365,-18.32211 11.63971,-7.1832 22.05857,-7.37141 27.97208,-0.5053 3.15667,3.66516 4.77015,8.41687 5.69994,16.78632 1.55736,14.01847 -0.74575,23.18349 -10.65711,42.40924 -0.1676,0.32509 1.44547,0.5264 3.58458,0.44742 4.41542,-0.16313 11.72787,0.60029 14.43475,1.50698 1,0.33498 2.68459,0.79709 3.74352,1.02691 2.08419,0.45236 6.44319,3.76371 11.34774,8.62051 2.30301,2.28058 3.57149,4.45439 4.97456,8.52509 3.54308,10.27927 3.07073,17.62567 -1.78837,27.81439 -1.57722,3.3072 -3.10358,6.81048 -3.3919,7.7851 -0.28833,0.97461 -1.55311,2.77461 -2.81062,4 -1.25751,1.22538 -3.26154,3.53294 -4.45339,5.12792 -3.40077,4.55091 -6.76899,7.45251 -13.43972,11.57767 -7.04324,4.35557 -9.11334,5.17855 -16.72728,6.6499 -5.43656,1.05061 -7.46078,1.14894 -10.90909,0.52981 z m 11.59363,-14.10894 c 4.86924,-1.57324 16.21513,-9.66844 20.22455,-14.43004 2.1,-2.49389 3.81819,-4.79411 3.81819,-5.11156 0,-0.31746 1.55454,-3.31244 3.45454,-6.65564 3.32332,-5.84749 3.45081,-6.2856 3.35612,-11.53294 -0.10292,-5.70313 -1.36976,-9.75767 -3.65972,-11.71302 -4.11753,-3.51585 -6.81625,-4.432 -15.12033,-5.13302 l -8.28808,-0.69963 -5.60433,2.24414 c -3.08238,1.23418 -6.56774,3.05469 -7.74525,4.04553 -2.26254,1.90378 -5.49514,2.33309 -7.89531,1.04858 -1.24403,-0.66575 -1.40673,-0.50298 -1.40673,1.4072 0,1.18807 0.33245,3.03447 0.73877,4.1032 0.40634,1.06873 1.56873,6.08095 2.58311,11.13825 1.7481,8.71535 2.63491,12.2272 4.01135,15.88531 0.33097,0.87957 0.9922,4.47957 1.4694,8 0.4772,3.52037 1.11993,6.728 1.42829,7.128 0.83048,1.07731 5.67569,1.23193 8.63543,0.27564 z m -16.91784,-58.27564 c 1.22862,-1.3 2.68373,-3.24174 3.23357,-4.31505 1.9106,-3.72938 6.66255,-11.87324 7.56085,-12.95767 1.87016,-2.25768 6.3937,-13.67193 7.64011,-19.27826 1.07884,-4.85265 1.18913,-7.15665 0.66142,-13.81818 -0.34831,-4.39694 -0.83879,-8.70407 -1.08995,-9.57127 -0.72256,-2.49498 -4.01089,-3.49047 -8.13349,-2.46233 -5.33582,1.33077 -9.51852,4.0944 -15.34084,10.13622 -6.24892,6.48451 -8.42376,10.20967 -7.85872,13.4608 0.84838,4.88131 4.16291,19.23556 5.47598,23.71484 0.76218,2.6 1.77645,7.01818 2.25394,9.81818 1.51656,8.89309 1.86518,9.22152 5.59713,5.27272 z m 144.70804,46.72728 c -3.57245,-3.13666 -5.9521,-7.67091 -9.24014,-17.60648 -2.14852,-6.49221 -4.32551,-16.92952 -4.32551,-20.73811 0,-0.50378 -1.798,-0.10894 -3.89008,0.85419 -7.59554,3.49687 -12.54922,4.65883 -15.32316,3.5944 -1.77617,-0.6816 -1.39001,-4.44742 0.76317,-7.44233 2.00476,-2.78851 2.77295,-3.29949 12.37519,-8.23171 6.508,-3.34291 6.77514,-3.79585 6.79424,-11.52087 0.009,-3.74727 2.37045,-23.21847 4.05688,-33.45455 1.05732,-6.4176 3.24869,-15.57469 5.55269,-23.20305 1.1172,-3.69898 4.40528,-6.71731 5.79916,-5.32342 0.95012,0.95011 -0.87178,22.96458 -2.70966,32.74153 -1.10779,5.89309 -3.02766,32.59992 -2.38939,33.23825 0.22308,0.22306 1.35098,0.0407 2.50646,-0.40567 3.05603,-1.18015 15.87388,-3.59309 19.08658,-3.59309 3.5247,0 7.62106,3.35142 7.25511,5.93571 -0.25607,1.80836 -2.44309,2.67949 -13.02612,5.18843 -7.16206,1.69797 -15.00841,5.40946 -15.48966,7.32691 -0.21864,0.87113 0.0568,3.53826 0.61205,5.92698 0.55528,2.38866 0.84508,5.16568 0.644,6.17106 -0.37376,1.8688 2.1199,12.61745 3.26885,14.08996 0.34996,0.44851 0.85121,1.94618 1.11389,3.32815 0.26268,1.38196 1.51601,4.76552 2.78519,7.51905 2.61194,5.66669 2.31333,7.27055 -1.4234,7.64538 -1.64365,0.16488 -2.88662,-0.364 -4.79634,-2.04072 z m 129.34344,-7.55433 c -5.72192,-1.39287 -11.62766,-4.63782 -15.8413,-8.70407 -3.21374,-3.10131 -4.16106,-4.62902 -5.53573,-8.92728 -3.00356,-9.39141 -0.35758,-17.62843 7.59047,-23.6293 4.6559,-3.5152 9.29012,-4.40728 14.38805,-2.76953 6.69758,2.15163 9.94397,6.22283 9.94397,12.47032 0,3.27753 -0.389,4.52386 -2.18638,7.0051 -1.9147,2.64312 -2.53624,3.01818 -5.00186,3.01818 -4.02419,0 -5.00266,-1.44197 -3.39608,-5.00473 1.69179,-3.75171 1.27811,-5.98436 -1.26507,-6.82749 -4.74199,-1.57215 -9.2789,1.94284 -10.69916,8.28924 -0.78435,3.50487 -0.74084,4.31025 0.34645,6.41287 1.84378,3.56545 4.56684,5.62567 9.75416,7.37985 4.59662,1.55448 9.1239,1.64102 15.72066,0.30066 5.07143,-1.0304 12.62734,-7.84051 15.38679,-13.86793 2.58159,-5.63891 3.07532,-12.94364 1.12955,-16.71156 -3.4498,-6.68051 -11.35576,-11.84335 -25.14565,-16.42095 -3.65388,-1.21287 -7.16009,-2.67149 -7.79159,-3.24123 -0.6315,-0.56982 -1.674,-1.036 -2.31667,-1.036 -1.30034,0 -9.2611,-8.62669 -10.27037,-11.12953 -0.35438,-0.87876 -1.06018,-2.57956 -1.56847,-3.77956 -1.2064,-2.84815 -0.79029,-8.27171 0.88299,-11.50873 2.00159,-3.87222 9.40729,-11.20575 12.85699,-12.73171 2.3197,-1.02611 4.32382,-1.28378 8.39022,-1.07869 4.86645,0.24538 5.62664,0.50218 8.53074,2.88182 3.14482,2.57694 3.1882,2.67411 3.1882,7.13949 0,4.99636 -0.2721,5.39585 -5.63905,8.27803 -5.75306,3.08953 -9.56267,0.99251 -7.19954,-3.96305 1.3849,-2.90415 0.80175,-4.04575 -1.80971,-3.54284 -1.76241,0.33942 -7.05451,5.29208 -8.37173,7.83477 -1.38984,2.68283 -0.71974,4.64174 2.71991,7.95098 2.6651,2.564 14.00495,8.55811 16.19056,8.55811 0.55604,0 3.08086,0.66123 5.61071,1.46945 11.36436,3.63047 22.10988,13.47033 25.41334,23.27142 1.83058,5.43113 2.36477,13.33491 1.08047,15.9864 -0.48437,1 -1.06357,3.0064 -1.2871,4.45869 -0.52922,3.43818 -6.14582,10.81353 -10.44407,13.7144 -11.70948,7.90262 -23.42375,10.87185 -33.3547,8.4544 z m -72.43602,-12.38887 c -10.03955,-1.82189 -16.34777,-10.32168 -16.80743,-22.64662 -0.28687,-7.69171 0.76473,-14.16422 3.47857,-21.41018 0.52433,-1.4 1.17287,-3.32866 1.44117,-4.28597 0.26832,-0.95731 1.43273,-3.23047 2.5876,-5.05149 1.15486,-1.82101 2.09975,-3.69243 2.09975,-4.15869 0,-0.46625 1.69615,-3.42945 3.76923,-6.58487 4.16988,-6.34698 11.93628,-14.24313 15.85901,-16.12393 8.38151,-4.01861 15.26425,2.26895 14.12839,12.90669 -0.45686,4.27855 -3.18211,13.07389 -4.62749,14.93462 -0.31072,0.4 -0.77937,1.62502 -1.04144,2.72218 -0.26208,1.09724 -1.69811,3.948 -3.19119,6.33513 -1.49308,2.38713 -4.02378,6.49062 -5.62378,9.11891 -2.76735,4.54589 -8.66455,11.27833 -9.87914,11.27833 -0.31256,0 -0.75008,0.57272 -0.97227,1.2728 -0.22217,0.7 -1.88994,2.17032 -3.70613,3.26734 -4.63838,2.80167 -4.81798,3.85644 -1.22696,7.20611 3.05168,2.84655 4.46425,3.23476 10.32995,2.83884 4.56837,-0.30837 12.79373,-4.50349 19.40112,-9.89491 l 2.31022,-1.88509 0.82705,1.54538 c 0.68288,1.27593 0.50909,2.07738 -0.99693,4.59745 -2.50315,4.18851 -8.86548,10.14378 -12.81419,11.9944 -2.83397,1.32815 -9.0985,3.14829 -10.18181,2.95833 -0.2,-0.0349 -2.52349,-0.45571 -5.1633,-0.93476 z m -3.44747,-29.63957 c 6.53978,-5.11491 7.85236,-6.97832 15.02184,-21.32632 6.45031,-12.90873 8.11072,-18.55098 6.31451,-21.45731 -0.80216,-1.29789 -1.69627,-0.78633 -6.04265,3.45731 -5.13336,5.012 -8.63146,9.91491 -12.14183,17.01781 -1.43459,2.90284 -2.87657,5.62037 -3.20441,6.03906 -0.32782,0.41876 -0.77678,1.57949 -0.99768,2.57949 -0.22089,1 -0.9066,3.17673 -1.52379,4.83724 -0.61719,1.66043 -1.32062,4.75469 -1.56317,6.876 -0.24254,2.12138 -0.60188,4.11731 -0.79853,4.43549 -0.89835,1.4536 1.39273,0.31222 4.93571,-2.45877 z m -113.14275,23.21913 c -1.03058,-1.59127 -1.59107,-5.37542 -2.23519,-15.09091 -0.17237,-2.6 0.0544,-10.23403 0.50389,-16.96458 0.67618,-10.12451 1.05667,-12.5416 2.20384,-14 0.7626,-0.96945 2.0336,-1.76269 2.82442,-1.76269 1.86589,0 5.45488,1.86371 5.90051,3.064 0.19112,0.51484 0.28192,10.192 0.20178,21.50487 l -0.14572,20.56887 -2.06789,2.1584 c -2.55484,2.66669 -5.651,2.89164 -7.18564,0.52204 z m -0.86466,-61.2 c -2.62694,-2.62691 -3.17256,-5.37738 -1.7055,-8.59731 0.8781,-1.9272 4.93928,-4.92996 6.66767,-4.92996 1.82895,0 4.92873,4.19687 4.92873,6.67316 0,4.204 -3.52423,9.32684 -6.41637,9.32684 -0.55099,0 -2.11453,-1.11273 -3.47453,-2.47273 z m -119.927276,-44.756 c -1.2,-0.32931 -3.16363,-1.09578 -4.36363,-1.7032 -1.2,-0.60741 -4.06525,-1.97985 -6.36722,-3.04981 -2.30198,-1.07004 -4.56076,-2.65731 -5.01952,-3.52735 -0.45876,-0.86996 -1.79742,-2.56364 -2.97479,-3.76364 -2.17123,-2.21294 -5.63847,-8.56378 -5.63847,-10.32778 0,-0.53062 -0.32233,-1.53294 -0.71629,-2.22756 -0.39395,-0.69455 -1.39177,-3.34546 -2.21739,-5.89091 -1.22977,-3.79156 -1.47972,-6.2872 -1.38279,-13.80669 0.0651,-5.04822 0.43531,-10.00189 0.82274,-11.00822 0.38744,-1.0064 0.95925,-4.32298 1.27069,-7.37018 0.31146,-3.04727 1.10269,-6.61578 1.7583,-7.92996 0.6556,-1.31419 1.19201,-3.8224 1.19201,-5.57382 0,-1.75135 0.51845,-4.40109 1.15211,-5.88822 0.63366,-1.4872 1.45093,-4.75236 1.81616,-7.256 0.36523,-2.50364 0.95228,-5.12182 1.30456,-5.81818 1.36887,-2.70589 2.9999,-6.80647 2.9999,-7.54218 0,-0.42466 0.60588,-1.6408 1.3464,-2.70255 0.74052,-1.06174 1.90514,-3.4032 2.58805,-5.2032 0.68291,-1.8 2.19022,-4.58182 3.34957,-6.18182 1.15935,-1.6 3.42318,-5.03636 5.03072,-7.63636 5.39101,-8.71927 16.896496,-17.59622 28.821636,-22.23694 4.36293,-1.6979 6.07936,-1.96008 12.68879,-1.9384 12.49451,0.0407 18.36977,2.49498 22.57125,9.42741 3.38225,5.58073 4.30233,10.316 3.52233,18.12822 -0.35354,3.5408 -0.93643,7.25607 -1.29531,8.25607 -0.35888,1 -1.04894,3.78182 -1.53348,6.18182 -2.09682,10.38597 -11.65207,24.97476 -21.08996,32.19978 -3.71936,2.84728 -8.32524,4.0104 -14.47194,3.65455 -7.00352,-0.40546 -8.52451,-1.30386 -11.18829,-6.6088 -1.92859,-3.84087 -1.98753,-4.25804 -1.25186,-8.86313 0.42461,-2.65796 1.03828,-5.38589 1.36372,-6.06203 0.32544,-0.67622 1.31448,-2.7296 2.19787,-4.56306 2.49724,-5.18313 5.61622,-8.52422 8.86674,-9.49811 4.3034,-1.28931 5.17347,0.0109 2.24184,3.34967 -1.25199,1.4259 -2.80092,3.60699 -3.44208,4.84691 -2.79827,5.4112 -4.1638,15.40553 -2.35237,17.21695 2.11267,2.11265 9.12939,0.20654 12.84777,-3.49018 9.93564,-9.87782 16.89518,-24.66633 18.36387,-39.02204 0.67959,-6.64262 0.63634,-7.08007 -0.92521,-9.35905 -2.31437,-3.3776 -4.58598,-4.44822 -10.55846,-4.97637 -5.75936,-0.50923 -11.64355,0.49419 -15.14615,2.58299 -1.2,0.71556 -2.98019,1.64792 -3.95598,2.07178 -3.39003,1.47272 -12.22861,9.71789 -15.17525,14.15651 -1.062186,1.6 -3.120986,4.54545 -4.575096,6.54545 -6.97344,9.59127 -13.79743,28.77745 -16.25498,45.70218 -0.28115,1.93615 -0.66984,4.22706 -0.86376,5.09091 -0.19392,0.86378 -0.48086,6.34458 -0.63765,12.17949 -0.24605,9.15724 -0.0794,11.29695 1.21813,15.63636 3.70029,12.37564 9.13299,18.57506 17.42666,19.88611 4.980976,0.78742 8.802456,-0.38276 14.817926,-4.53738 2.8,-1.93382 7.34911,-5.0472 10.10915,-6.91869 2.76003,-1.87142 7.08654,-5.1208 9.61447,-7.2208 5.1464,-4.2752 7.15997,-4.74065 8.43189,-1.94916 0.74503,1.6352 0.54293,2.43149 -1.61517,6.36363 -2.36739,4.31353 -6.19027,9.43367 -11.34722,15.19775 -1.33011,1.48669 -5.84297,5.03898 -10.02857,7.89403 l -7.61018,5.19098 -6.77718,0.24553 c -3.727456,0.13498 -7.759006,-0.024 -8.959006,-0.35331 z m 317.021056,-1.21556 c -1.56158,-0.54364 -3.39608,-0.99331 -4.07666,-0.99927 -1.97301,-0.0175 -15.17358,-7.24175 -18.76258,-10.26815 -4.74028,-3.99731 -7.28271,-9.54749 -5.49404,-11.9936 1.35059,-1.84705 5.7824,-0.77498 8.24983,1.99571 3.56866,4.0072 14.21641,8.22269 20.51694,8.12269 11.71427,-0.18589 15.94555,-2.3696 20.68395,-10.67491 2.14936,-3.76727 2.51568,-6.83345 1.43246,-11.99018 l -0.66401,-3.16116 -2.37038,2.60487 c -3.69841,4.06429 -6.86621,5.28938 -14.11282,5.45796 -5.64421,0.13128 -6.81439,-0.085 -11.18776,-2.068 -2.68632,-1.21803 -5.59496,-2.98152 -6.46363,-3.91883 -2.87864,-3.10611 -8.63092,-12.38262 -9.52708,-15.364 -1.31505,-4.37498 -2.04109,-15.67229 -1.15562,-17.98189 1.11623,-2.91157 3.3884,-3.88887 5.62859,-2.42109 2.08505,1.36618 2.54129,2.41382 4.2814,9.83142 2.18933,9.33243 5.92033,15.66007 10.98311,18.62705 3.94011,2.30909 8.96237,2.58676 12.58219,0.69571 4.17469,-2.18095 9.52596,-8.04051 9.52596,-10.43084 0,-1.14749 -1.49404,-6.3176 -3.32009,-11.48916 -5.51355,-15.61484 -5.5247,-15.66058 -4.27706,-17.56466 1.4794,-2.25789 4.96546,-2.21898 7.08642,0.0791 1.49661,1.6216 4.49062,7.59884 9.87734,19.7192 4.60795,10.36807 7.00473,25.5104 5.6834,35.90647 -0.33721,2.65316 -1.64936,6.92945 -3.06995,10.00495 -3.83525,8.30305 -9.4305,13.19221 -17.4509,15.24887 -2.19104,0.56182 -5.73332,1.4712 -7.87173,2.0208 -3.28246,0.84363 -4.33025,0.84538 -6.72728,0.0109 z m -233.38469,-9.36851 c -11.63509,-5.78073 -17.91917,-23.08931 -14.49123,-39.91389 1.53311,-7.52458 3.41959,-12.2976 6.33837,-16.03658 3.46347,-4.4368 3.68303,-4.60953 7.89203,-6.20931 5.63188,-2.14058 11.03954,-1.9512 15.27715,0.53506 7.8068,4.58021 8.92054,5.64574 11.69886,11.19236 2.4544,4.9 3.16234,7.69091 4.39736,17.33607 0.67983,5.30916 -3.40137,20.3768 -6.85462,25.30698 -2.99741,4.27942 -13.21621,9.60626 -18.41453,9.59906 -1.21387,0 -3.84339,-0.81608 -5.84339,-1.80975 z m 14,-12.56938 c 1.3,-0.98473 2.36363,-2.33331 2.36363,-2.99687 0,-0.66349 0.50538,-1.92793 1.12308,-2.80982 1.62856,-2.32509 2.4511,-13.30116 1.41377,-18.86546 -1.56925,-8.41745 -6.67461,-13.67214 -12.68685,-13.05796 -2.73551,0.27942 -3.77341,0.88931 -6.65555,3.91062 -3.16249,3.3152 -3.45307,3.93847 -3.93529,8.44138 -0.67818,6.3328 -0.14794,11.40146 1.79128,17.12298 1.63282,4.81753 5.18385,9.98146 7.22469,10.50618 2.38785,0.61397 7.06327,-0.51032 9.36124,-2.25105 z M 348.33968,242.653 c -2.47206,-3.916 -3.1801,-5.87796 -4.39744,-12.1853 -0.56384,-2.92131 -1.42363,-6.0304 -1.91066,-6.90909 -0.48701,-0.87862 -1.1375,-3.88844 -1.44552,-6.68844 -0.80858,-7.3504 -1.65354,-12.23724 -2.2955,-13.27593 -0.3262,-0.52785 -2.07953,-0.90589 -4.20111,-0.90589 -3.56794,0 -6.32835,-0.91847 -7.31307,-2.43331 -1.01013,-1.55396 0.96892,-3.29302 5.63456,-4.95149 l 4.79968,-1.70611 -0.44432,-2.54545 c -0.24437,-1.4 -0.62714,-4.18182 -0.85059,-6.18182 -0.22345,-2 -0.85359,-4.83178 -1.40031,-6.2928 -0.54672,-1.46102 -0.81987,-3.75193 -0.607,-5.09091 0.21286,-1.33898 -0.12981,-6.34814 -0.76151,-11.13156 -1.77055,-13.4072 -1.28792,-23.73295 1.59576,-34.14066 1.19735,-4.32145 5.58529,-12.42843 8.44264,-15.59832 2.55784,-2.8376 8.76647,-6.61113 12.90896,-7.84597 5.22579,-1.55767 14.53733,-0.94116 21.20842,1.40429 10.18459,3.58066 20.15024,16.03099 20.15024,25.17419 0,3.8221 -1.6946,10.22421 -3.46791,13.10174 -2.33937,3.796 -6.34725,7.37011 -9.09396,8.10975 -2.43431,0.65549 -3.25797,0.50741 -6.60544,-1.18757 -5.33683,-2.70232 -8.85966,-8.184 -5.97167,-9.29222 0.57356,-0.22007 2.23864,0.55019 3.70019,1.71164 3.393,2.69644 5.22049,3.2592 7.17932,2.21084 2.31536,-1.23913 5.53394,-7.47768 6.03334,-11.69433 0.41405,-3.496 0.26365,-3.94058 -2.89712,-8.56276 -6.68866,-9.78131 -9.68053,-11.29215 -22.44234,-11.33295 -5.79853,-0.0182 -6.53758,0.14858 -9.40819,2.12786 -6.91202,4.76567 -10.57488,13.05345 -11.042,24.98407 -0.16601,4.24014 -0.0433,9.67294 0.27276,12.07294 0.31603,2.4 0.75372,6 0.97265,8 0.21893,2 0.58974,4.94546 0.82404,6.54546 0.61092,4.172 4.55009,23.76814 4.81487,23.95251 0.1223,0.0852 3.71179,-0.0327 7.97662,-0.26248 9.29026,-0.5 12.57307,-0.0494 14.62976,2.00713 4.28671,4.28669 -3.29203,8.65825 -14.65498,8.45331 -6.90505,-0.12458 -6.90713,-0.12102 -4.50343,7.77294 0.77409,2.54211 1.37536,5.44022 1.33618,6.44022 -0.0392,1 0.47292,5.29658 1.13803,9.54786 1.67054,10.67811 1.59371,15.22181 -0.29805,17.62676 -2.37559,3.02007 -5.2999,2.6248 -7.6059,-1.02815 z m -112.94182,-2.3752 c -0.86972,-0.92574 -1.58131,-2.57127 -1.58131,-3.65665 0,-1.08538 -1.12283,-7.11884 -2.49518,-13.40764 -2.85305,-13.07418 -4.63868,-31.24756 -3.39229,-34.52516 1.45052,-3.8144 5.62482,-2.14763 7.40407,2.95629 1.01926,2.92386 1.63466,2.90938 3.48338,-0.0819 2.92578,-4.73403 9.06815,-8.51076 13.84159,-8.51076 4.41599,0 11.37976,5.07651 14.20098,10.35236 1.22659,2.29382 2.45358,4.17564 2.72662,4.18182 0.27304,0.007 0.70906,-0.65862 0.96894,-1.47746 0.25987,-0.81876 2.08763,-3.42945 4.06168,-5.80152 3.03477,-3.64662 4.17701,-4.47382 7.39469,-5.35491 5.03178,-1.37782 10.28285,-1.43367 12.79233,-0.13593 2.51189,1.29891 6.88398,6.06582 8.51429,9.28313 0.67087,1.32385 1.65388,2.90458 2.18447,3.51273 1.29867,1.48836 6.48847,17.37301 7.86168,24.06254 2.70458,13.17535 -2.44048,21.98509 -8.132,13.92415 -0.77725,-1.1008 -2.07854,-4.61964 -2.89174,-7.81964 -3.60038,-14.16756 -4.54725,-17.15971 -6.25634,-19.77033 -0.99926,-1.52632 -2.7403,-4.57512 -3.86898,-6.77512 -1.72358,-3.35957 -2.33569,-3.96822 -3.82317,-3.80131 -1.87752,0.21054 -2.72457,0.97607 -6.21139,5.61316 -2.82486,3.7568 -3.40522,4.93353 -5.02499,10.18815 -0.7398,2.4 -1.63001,5.11541 -1.97824,6.03425 -0.34822,0.91876 -0.63313,3.30204 -0.63313,5.29607 0,6.52698 -2.94354,11.17913 -6.54546,10.3448 -3.90117,-0.90363 -4.51736,-2.52233 -6.22241,-16.34596 -1.68777,-13.68349 -3.53275,-18.87491 -8.04692,-22.6424 -1.28744,-1.07447 -1.85326,-1.14516 -3.42678,-0.42822 -3.90341,1.77847 -6.5333,7.67207 -8.07904,18.10509 -0.7758,5.23629 -0.1729,11.15164 2.14958,21.09091 0.31747,1.35862 -0.14909,2.50749 -1.84592,4.54545 -2.64398,3.1755 -4.82634,3.49513 -7.12901,1.044 z"
       id="path302"
       sodipodi:nodetypes="ssssssssssssscssscssssssssssssssssssccsssssssssscssssssssssssscssscssssscssssssssssssssssssssssssssssssssssssssssssscsssssssssssssssssssssssscssscssssssssssssssssssscsssssssssscssssssssssssssssssccssssssssscsscsssscccscssscssssssssccsscsssssscssssssssssssssssssssssssscssscssssssssssssssssssscssssssscsssssscsssccsssssccsssssssssssssscssssscssssscsssssssssssss"
       inkscape:label="text" /></g></svg>
